<?xml version="1.0" encoding="UTF-8"?>
<svg width="48px" height="48px" viewBox="0 0 48 48" version="1.1" xmlns="http://www.w3.org/2000/svg" xmlns:xlink="http://www.w3.org/1999/xlink">
    <!-- Generator: Sketch 50.2 (55047) - http://www.bohemiancoding.com/sketch -->
    <title>Icons / Payment Methods / Amex</title>
    <desc>Created with Sketch.</desc>
    <defs></defs>
    <g id="Icons-/-Payment-Methods-/-Amex" stroke="none" stroke-width="1" fill="none" fill-rule="evenodd">
        <g id="Amex">
            <rect id="Container" x="0" y="0" width="48" height="48"></rect>
        </g>
        <g id="American_express_logo_shorthand" transform="translate(5.000000, 5.000000)" fill-rule="nonzero">
            <path d="M0,-2.70405705e-06 L37.999999,-2.70405705e-06 L37.999999,6.18180859 C36.143018,6.18467632 34.2846027,6.17750699 32.4276217,6.18611019 C32.0117725,7.35335568 31.6073953,8.52346891 31.1757725,9.68497792 C30.7154709,8.53350648 30.329735,7.35335568 29.9153201,6.18467632 C27.5076974,6.17894035 25.1000746,6.18180859 22.6938863,6.18324245 C22.6924524,7.74195939 22.7082259,9.30067632 22.6852826,10.8593933 C21.9639995,9.31214776 21.2929053,7.74195939 20.5959995,6.18467632 C18.6501127,6.17750648 16.7056598,6.18467632 14.759773,6.18180859 C12.7378863,10.7489779 10.7188677,15.3204499 8.70128256,19.8904874 C10.3288297,19.8919213 11.9578111,19.8876197 13.5853582,19.8919213 C13.5753201,23.9471663 13.5896598,28.0024118 13.5781884,32.0576568 C18.6257355,32.0676943 23.6732826,32.0662605 28.7193953,32.0590906 C29.4994709,31.1786377 30.296754,30.3139589 31.089735,29.4464118 C31.8755461,30.3211287 32.6599238,31.1987134 33.4586408,32.0633927 C34.9729048,32.0619589 36.485735,32.0648266 37.999999,32.0619589 L37.999999,37.9999965 L0,37.9999965 L0,-2.70405705e-06 Z" id="path3281" fill="#016FD0"></path>
            <path d="M15.8036979,7.71471389 C17.0541127,7.70180859 18.3045275,7.71614776 19.5549429,7.70467632 C21.1394709,11.2207515 22.6479995,14.7726763 24.2526032,18.2787139 C24.2769805,14.7569028 24.2583392,11.2336573 24.2612069,7.71041229 C25.7783387,7.70897843 27.2954709,7.70611069 28.8126032,7.71328003 C29.5969805,9.90294035 30.3698858,12.0969028 31.1686027,14.282261 C32.0060371,12.1083742 32.7603011,9.90150648 33.5561498,7.71184616 C35.0374329,7.70754456 36.5187159,7.71041229 37.999999,7.70897843 L37.999999,18.3704874 C37.055018,18.3704874 36.1114709,18.3704874 35.1664895,18.3704874 C35.1521498,15.9083742 35.1894329,13.446261 35.1478482,10.9855821 C34.2028667,13.4319213 33.3324519,15.9069403 32.424754,18.3676192 C31.5729805,18.3719208 30.7226408,18.3762234 29.8708672,18.3604494 C28.961735,15.9012044 28.0669424,13.4362234 27.1549429,10.9784123 C27.0947164,13.440525 27.147773,15.9069403 27.1291313,18.3704874 C25.0785651,18.3590155 23.0279995,18.3948647 20.9788672,18.3518457 C20.6920746,17.6406007 20.3938106,16.9336573 20.0898106,16.2310155 C18.4579619,16.2367515 16.8261127,16.2324494 15.1942635,16.2324494 C14.9003016,16.9408266 14.6020376,17.64777 14.3166789,18.3604489 C13.2469429,18.3805245 12.1786413,18.3676187 11.1089053,18.3704869 C12.67049,14.8171282 14.2521503,11.2723737 15.8036979,7.71471339 L15.8036979,7.71471389 Z M16.2023392,13.8348642 C17.1602259,13.8391658 18.1195466,13.8362981 19.0788672,13.8362981 C18.6214334,12.6848266 18.1310185,11.5462605 17.6606789,10.400525 C17.1200751,11.5204494 16.6941884,12.6919965 16.2023392,13.8348642 Z" id="path3283" fill="#016FD0"></path>
            <path d="M15.1870937,19.8962229 C18.1496598,19.8775816 21.1136598,19.9249023 24.0747916,19.8718457 C24.1479238,19.9421102 24.2181879,20.0138081 24.2898863,20.0869403 C24.2511693,20.8426382 24.2640746,21.5997705 24.2655085,22.3569023 C22.213509,22.3583361 20.1600751,22.3511663 18.1066408,22.3612039 C18.1066408,22.9147129 18.1066408,23.4682224 18.1138106,24.0202981 C20.1141879,24.0116943 22.1159995,24.0088261 24.1163767,24.0217319 C24.1120751,24.8218827 24.1120751,25.622034 24.113509,26.4221848 C22.110264,26.4236187 20.107019,26.4221848 18.1052074,26.4221848 C18.1066413,26.9728261 18.1066413,27.5220335 18.1052074,28.0726753 C20.1586413,28.0712414 22.2120751,28.0712414 24.265509,28.0726753 C24.265509,28.8885997 24.2640751,29.7059584 24.265509,30.5218827 C25.9418111,28.7638451 27.5951693,26.9828642 29.2700376,25.2233922 C27.6625656,23.5198451 26.0780376,21.7919208 24.4375847,20.1213547 C24.4074714,20.0611282 24.3486789,19.9421097 24.3185656,19.8833171 C25.5747169,19.9091282 26.8323016,19.884751 28.0898863,19.8976568 C29.1123016,21.0362224 30.1375847,22.1719208 31.1729053,23.2975811 C32.1953201,22.153279 33.2421127,21.0290526 34.2774334,19.8947885 C35.5178106,19.8919208 36.7581884,19.8976563 37.9999995,19.8919208 L37.9999995,19.9406753 C36.3294334,21.6901092 34.6531318,23.4338076 32.9926032,25.193279 C34.6631693,26.9670901 36.3523767,28.7236943 37.9999995,30.5175806 L37.9999995,30.5534298 C36.7481503,30.5605997 35.4963016,30.5534298 34.2444524,30.5591658 C33.1876222,29.4162981 32.1465656,28.2605245 31.1069429,27.1033166 C30.052981,28.2533547 29.0090561,29.4091282 27.9550942,30.5577319 C23.706264,30.5534303 19.4574339,30.5577319 15.2086037,30.5562981 C15.1598492,27.0043732 15.2014339,23.4495811 15.1870942,19.8962224 L15.1870937,19.8962229 Z" id="path3285" fill="#016FD0"></path>
            <path d="M35.106263,25.2004494 C36.0526783,24.1536568 37.0722254,23.174261 37.999999,22.1116949 L37.999999,28.2892039 C37.0521498,27.2438457 36.0813577,26.2199965 35.106263,25.2004494 Z" id="path3287" fill="#016FD0"></path>
            <g id="#ffffffff" transform="translate(8.603773, 6.166035)" fill="#FFFFFF">
                <path d="M6.15599983,0.0157735845 C8.10188657,0.0186415089 10.0463393,0.0114716978 11.9922261,0.0186415089 C12.6891317,1.57592448 13.360226,3.14611312 14.081509,4.69335836 C14.1044524,3.13464142 14.0886789,1.57592448 14.0901128,0.0172075467 C16.4963014,0.0157735845 18.903924,0.01290566 21.3115466,0.0186415089 C21.7259617,1.18732072 22.1116975,2.36747163 22.5719994,3.5189433 C23.003622,2.3574339 23.4079993,1.18732072 23.8238484,0.0200754711 C25.6808295,0.0114716978 27.5392445,0.0186415089 29.3962256,0.0157735845 L29.3962256,1.54294335 C27.9149426,1.54437732 26.4336596,1.54150939 24.9523767,1.54581128 C24.1565276,3.73547159 23.4022635,5.94233946 22.5648296,8.11622619 C21.7661126,5.93086776 20.993207,3.73690556 20.2088296,1.54724524 C18.6916976,1.54007543 17.1745656,1.54294335 15.6574335,1.54437732 C15.6545656,5.0676225 15.6732071,8.59086768 15.6488298,12.1126789 C14.044226,8.60664127 12.5356978,5.05471684 10.9511695,1.53864147 C9.70075445,1.55011316 8.45033939,1.53577354 7.19992433,1.5486792 C5.6483772,5.10633948 4.06671687,8.6510941 2.50513201,12.2044525 C3.57486782,12.2015846 4.64316968,12.2144902 5.7129055,12.1944148 C5.99826398,11.4817355 6.29652813,10.7747922 6.59049038,10.0664148 C8.22233939,10.0664148 9.8541884,10.0707167 11.4860374,10.0649809 C11.7900374,10.7676223 12.0883015,11.4745657 12.375094,12.185811 C14.424226,12.2288298 16.474792,12.1929808 18.525358,12.2044525 C18.5439995,9.74090539 18.4909429,7.27449036 18.5511693,4.81237722 C19.4631693,7.27018848 20.3579617,9.73516954 21.2670937,12.1944148 C22.1188673,12.2101883 22.9692069,12.2058865 23.8209805,12.2015846 C24.7286786,9.74090539 25.5990936,7.26588659 26.5440747,4.81954703 C26.5856596,7.28022621 26.5483766,9.74233935 26.5627162,12.2044525 C27.5076973,12.2044525 28.4512445,12.2044525 29.3962256,12.2044525 L29.3962256,13.7258864 C28.1544143,13.7316223 26.914037,13.7258864 25.6736597,13.7287543 C24.6383389,14.8630185 23.5915465,15.9872448 22.5691314,17.1315467 C21.5338107,16.0058863 20.5085277,14.8701883 19.4861127,13.7316223 C18.2285278,13.7187166 16.9709429,13.743094 15.714792,13.7172826 C15.7449052,13.7760751 15.8036977,13.895094 15.8338109,13.9553204 C17.4742637,15.6258864 19.0587919,17.3538108 20.6662636,19.057358 C18.9913957,20.8168296 17.3380373,22.5978107 15.6617354,24.3558484 C15.6603014,23.5399239 15.6617354,22.7225654 15.6617354,21.9066409 C13.6083015,21.9052069 11.5548676,21.9052069 9.5014337,21.9066409 C9.50286766,21.3559994 9.50286766,20.8067919 9.5014337,20.2561504 C11.503245,20.2561504 13.5064902,20.2575843 15.5097354,20.2561504 C15.5083015,19.4559995 15.5083015,18.6558485 15.5126033,17.8556976 C13.512226,17.842792 11.5104148,17.8456599 9.51003747,17.8542637 C9.50286766,17.3021882 9.50286766,16.7486788 9.50286766,16.1951694 C11.5563016,16.1851316 13.6097355,16.1923014 15.6617354,16.1908675 C15.6603014,15.4337354 15.6473958,14.6766034 15.6861128,13.9209053 C15.6144147,13.8477732 15.5441505,13.7760751 15.4710184,13.7058109 C12.5098864,13.7588675 9.54588653,13.7115468 6.58332057,13.7301883 C6.59766019,17.2835467 6.55607529,20.838339 6.60483,24.3902635 C10.8536601,24.3916974 15.1024901,24.3873955 19.3513202,24.3916974 C20.4052824,23.2430937 21.4492069,22.0873201 22.5031692,20.9372824 C23.5427918,22.0944899 24.5838484,23.2502635 25.6406785,24.3931314 C26.8925275,24.3873955 28.1443766,24.3945654 29.3962256,24.3873955 L29.3962256,25.8959238 C27.8819615,25.8987917 26.3691313,25.8959238 24.8548672,25.8973578 C24.0561503,25.0326785 23.2717729,24.1550937 22.4859616,23.2803767 C21.6929805,24.1479239 20.8956975,25.0126031 20.1156221,25.8930559 C15.069509,25.9002257 10.021962,25.9016597 4.97441496,25.8916219 C4.98588665,21.8363767 4.97154703,17.7811316 4.98158477,13.7258864 C3.35403764,13.7215845 1.72505656,13.7258864 0.0975094312,13.7244524 C2.11509428,9.15441484 4.13411309,4.58294327 6.15599983,0.0157735845 Z" id="path3290"></path>
                <path d="M7.59856582,7.66882997 C8.09041487,6.52596208 8.51630165,5.35441494 9.05690541,4.23449045 C9.52724502,5.38022626 10.0176601,6.51879227 10.475094,7.67026394 C9.51577332,7.67026394 8.55645259,7.67313186 7.59856582,7.66882997 Z" id="path3292"></path>
                <path d="M24.3888295,19.0272448 C26.0493578,17.2677731 27.7256596,15.524075 29.3962256,13.7746411 L29.3962256,15.9456599 C28.468452,17.0082259 27.4489049,17.9876221 26.5024898,19.0344146 C27.4775841,20.0539617 28.4483766,21.0778107 29.3962256,22.1231692 L29.3962256,24.3515465 C27.748603,22.5576597 26.0593955,20.801056 24.3888295,19.0272448 Z" id="path3294"></path>
            </g>
        </g>
    </g>
</svg>