<svg xmlns="http://www.w3.org/2000/svg" width="68" height="68" viewBox="0 0 68 68">
  <g fill="none" fill-rule="evenodd">
    <circle cx="34" cy="34" r="34" fill="#FAFAFA"/>
    <g fill="#637282" opacity=".5" transform="translate(10 15)">
      <path d="M20.2050628 39.0456325C19.626404 38.9592083 19.0453177 38.9070506 18.6238404 38.9414686 17.9289644 39.0051496 17.2011651 39.3188541 16.6094584 39.7201957 16.0355029 40.1297249 15.5603169 40.6093031 15.3790119 41.0314169 16.4378635 41.4080442 17.9406468 41.6448767 19.163659 41.6359311 20.2819847 41.6448767 21.5276032 40.7116475 21.9903482 39.6734964 22.1995696 39.2034703 22.581448 39.2569926 22.3500755 38.7431479 22.0452707 38.0666136 21.6195453 37.199188 21.1787996 36.6296984 20.2422341 35.4481134 18.2277004 34.3894934 17.2576048 34.0113498 17.6985022 34.8429927 18.1776329 35.8709853 18.8888947 36.9220243 19.1525835 37.3104781 19.5465995 37.7042387 20.007979 38.0672201 20.5538663 38.4967633 20.899332 38.6820445 21.4945283 39.0140952L22.16255 39.3860223 21.5983045 39.2933817C21.1326769 39.2178743 20.672056 39.116288 20.2050628 39.0456325M12.2489893 36.2882402C11.721321 35.9625847 11.1756069 35.6698761 10.7515289 35.5285506 10.0472193 35.3010425 9.20704504 35.3048575 8.46352037 35.4493043 7.73231547 35.6102246 7.07034426 35.8800436 6.71775566 36.2159301 7.59245995 37.0234797 8.95891429 37.8795828 10.1541063 38.379511 11.2415437 38.8527346 12.843462 38.4618786 13.7275363 37.6418438 14.1273218 37.2714496 14.4776546 37.4817905 14.4656819 36.8844085 14.4500653 36.0981878 14.3966217 35.0766558 14.2043638 34.3372546 13.7825415 32.7960262 12.2599209 30.926021 11.4731903 30.1538462 11.5556113 31.1481535 11.5948264 32.349507 11.850939 33.6694699 11.9451593 34.1576065 12.1658742 34.7060882 12.4641516 35.2514486 12.8174343 35.8973842 13.0766702 36.2214791 13.5194882 36.7926769L14.0159232 37.433237 13.503698 37.108275C13.0813552 36.8407103 12.674629 36.550256 12.2489893 36.2882402M5.95424986 29.9096188C5.58962897 29.4593646 5.19855621 29.0315713 4.8674756 28.7751717 4.31578984 28.3560172 3.57271701 28.0987538 2.87079154 27.9956065 2.17543581 27.9111191 1.50635907 27.9446376 1.09090909 28.1324451 1.61285811 29.1167498 2.55388775 30.2957731 3.45532603 31.1081657 4.26893718 31.8642334 5.80573903 32.0152396 6.84064688 31.5648126 7.30848194 31.3607642 7.55259986 31.65552 7.72790834 31.1245794 7.95802233 30.4248367 8.22790057 29.505323 8.28650962 28.7931404 8.39370021 27.3012199 7.6286706 25.1767665 7.17241904 24.2510328 6.93694552 25.1548239 6.59894939 26.2284538 6.41586095 27.4739958 6.34774306 27.9344438 6.37194739 28.4866358 6.46669004 29.0612887 6.57768416 29.7415078 6.70613998 30.1081384 6.92052116 30.7500011L7.15997111 31.4694403 6.8084897 31.0236783C6.519248 30.6561838 6.24919687 30.2738305 5.95424986 29.9096188M3.15700364 20.334832C3.09022967 19.7625606 2.98998288 19.1966364 2.84871044 18.8055156 2.60873612 18.1610242 2.12243622 17.5508415 1.58790113 17.0921324 1.04958963 16.65195.470939093 16.3243006.0225750467 16.2615154-.0629093694 17.3647161.0994766901 18.853548.423390532 20.0133582.704733821 21.0793338 1.91335987 22.021626 3.02105252 22.1931702 3.52142817 22.2708797 3.56949169 22.6472476 3.99828702 22.2950674 4.56389174 21.8306973 5.27849339 21.2028456 5.70728872 20.6367498 6.58976941 19.4412584 7.07761421 17.2535554 7.18730204 16.2350976 6.50891969 16.8686103 5.65527711 17.5889243 4.83888378 18.5361913 4.5374568 18.886313 4.26400966 19.3628627 4.0372528 19.8953358 3.76998526 20.524903 3.68278429 20.8998986 3.52056989 21.5521095L3.33895842 22.2825447 3.28145384 21.722796C3.233047 21.2601413 3.21056014 20.796629 3.15700364 20.334832M4.42341037 10.2837512C4.64587848 9.77626887 4.8359293 9.25739444 4.90860103 8.86436709 5.02134907 8.21359353 4.91430077 7.4716832 4.69343571 6.83194574 4.45956812 6.2069824 4.1373545 5.65428769 3.79626049 5.38461538 3.19084087 6.25949285 2.60412354 7.57385607 2.31076488 8.69366363 2.02702453 9.71432434 2.57348742 11.081198 3.40939041 11.7595618 3.78735464 12.0673264 3.64468294 12.4030373 4.1719092 12.3177746 4.86656542 12.2058116 5.76374065 12.0308361 6.39409664 11.7684619 7.70575008 11.2036631 9.17094035 9.62407757 9.75605463 8.8314368 8.88648753 9.02866249 7.82811644 9.21325006 6.69155199 9.60485341 6.27083969 9.74974664 5.81307905 10.0124769 5.36725225 10.3442717 4.84002599 10.7372991 4.58531871 11.0071494 4.13557333 11.4695973L3.63096793 11.9882938 3.85432662 11.4954075C4.03814335 11.0892081 4.24440281 10.6922647 4.42341037 10.2837512M10.7174461 4.00984417C11.094691 3.72792216 11.4540349 3.42430109 11.6723264 3.16358121 12.0293499 2.7296002 12.2618958 2.13594068 12.3669807 1.5691151 12.4569824 1.00841827 12.4510155.464948157 12.3114548.122235674 11.4959694.515137564 10.5097626 1.24147601 9.82273278 1.94694361 9.18360444 2.58251045 9.01404317 3.82382865 9.34703301 4.67688292 9.49786464 5.06282786 9.25106431 5.25116237 9.67637637 5.41001267 10.2374369 5.61838981 10.9756832 5.86503016 11.5514954 5.93542784 12.7591429 6.06827241 14.5069667 5.51353867 15.2727273 5.17297953 14.5467464 4.95416697 13.6855144 4.64690179 12.6805779 4.45873292 12.3093 4.38982602 11.8599543 4.39280757 11.3903873 4.45127905 10.834465 4.52101417 10.5337962 4.61327654 10.0057197 4.76682631L9.41465862 4.93843102 9.78742823 4.66727571C10.094064 4.44382518 10.4129651 4.23760138 10.7174461 4.00984417"/>
      <path d="M20.2050628 39.0456325C19.626404 38.9592083 19.0453177 38.9070506 18.6238404 38.9414686 17.9289644 39.0051496 17.2011651 39.3188541 16.6094584 39.7201957 16.0355029 40.1297249 15.5603169 40.6093031 15.3790119 41.0314169 16.4378635 41.4080442 17.9406468 41.6448767 19.163659 41.6359311 20.2819847 41.6448767 21.5276032 40.7116475 21.9903482 39.6734964 22.1995696 39.2034703 22.581448 39.2569926 22.3500755 38.7431479 22.0452707 38.0666136 21.6195453 37.199188 21.1787996 36.6296984 20.2422341 35.4481134 18.2277004 34.3894934 17.2576048 34.0113498 17.6985022 34.8429927 18.1776329 35.8709853 18.8888947 36.9220243 19.1525835 37.3104781 19.5465995 37.7042387 20.007979 38.0672201 20.5538663 38.4967633 20.899332 38.6820445 21.4945283 39.0140952L22.16255 39.3860223 21.5983045 39.2933817C21.1326769 39.2178743 20.672056 39.116288 20.2050628 39.0456325M12.2489893 36.2882402C11.721321 35.9625847 11.1756069 35.6698761 10.7515289 35.5285506 10.0472193 35.3010425 9.20704504 35.3048575 8.46352037 35.4493043 7.73231547 35.6102246 7.07034426 35.8800436 6.71775566 36.2159301 7.59245995 37.0234797 8.95891429 37.8795828 10.1541063 38.379511 11.2415437 38.8527346 12.843462 38.4618786 13.7275363 37.6418438 14.1273218 37.2714496 14.4776546 37.4817905 14.4656819 36.8844085 14.4500653 36.0981878 14.3966217 35.0766558 14.2043638 34.3372546 13.7825415 32.7960262 12.2599209 30.926021 11.4731903 30.1538462 11.5556113 31.1481535 11.5948264 32.349507 11.850939 33.6694699 11.9451593 34.1576065 12.1658742 34.7060882 12.4641516 35.2514486 12.8174343 35.8973842 13.0766702 36.2214791 13.5194882 36.7926769L14.0159232 37.433237 13.503698 37.108275C13.0813552 36.8407103 12.674629 36.550256 12.2489893 36.2882402M5.95424986 29.9096188C5.58962897 29.4593646 5.19855621 29.0315713 4.8674756 28.7751717 4.31578984 28.3560172 3.57271701 28.0987538 2.87079154 27.9956065 2.17543581 27.9111191 1.50635907 27.9446376 1.09090909 28.1324451 1.61285811 29.1167498 2.55388775 30.2957731 3.45532603 31.1081657 4.26893718 31.8642334 5.80573903 32.0152396 6.84064688 31.5648126 7.30848194 31.3607642 7.55259986 31.65552 7.72790834 31.1245794 7.95802233 30.4248367 8.22790057 29.505323 8.28650962 28.7931404 8.39370021 27.3012199 7.6286706 25.1767665 7.17241904 24.2510328 6.93694552 25.1548239 6.59894939 26.2284538 6.41586095 27.4739958 6.34774306 27.9344438 6.37194739 28.4866358 6.46669004 29.0612887 6.57768416 29.7415078 6.70613998 30.1081384 6.92052116 30.7500011L7.15997111 31.4694403 6.8084897 31.0236783C6.519248 30.6561838 6.24919687 30.2738305 5.95424986 29.9096188M3.15700364 20.334832C3.09022967 19.7625606 2.98998288 19.1966364 2.84871044 18.8055156 2.60873612 18.1610242 2.12243622 17.5508415 1.58790113 17.0921324 1.04958963 16.65195.470939093 16.3243006.0225750467 16.2615154-.0629093694 17.3647161.0994766901 18.853548.423390532 20.0133582.704733821 21.0793338 1.91335987 22.021626 3.02105252 22.1931702 3.52142817 22.2708797 3.56949169 22.6472476 3.99828702 22.2950674 4.56389174 21.8306973 5.27849339 21.2028456 5.70728872 20.6367498 6.58976941 19.4412584 7.07761421 17.2535554 7.18730204 16.2350976 6.50891969 16.8686103 5.65527711 17.5889243 4.83888378 18.5361913 4.5374568 18.886313 4.26400966 19.3628627 4.0372528 19.8953358 3.76998526 20.524903 3.68278429 20.8998986 3.52056989 21.5521095L3.33895842 22.2825447 3.28145384 21.722796C3.233047 21.2601413 3.21056014 20.796629 3.15700364 20.334832M4.42341037 10.2837512C4.64587848 9.77626887 4.8359293 9.25739444 4.90860103 8.86436709 5.02134907 8.21359353 4.91430077 7.4716832 4.69343571 6.83194574 4.45956812 6.2069824 4.1373545 5.65428769 3.79626049 5.38461538 3.19084087 6.25949285 2.60412354 7.57385607 2.31076488 8.69366363 2.02702453 9.71432434 2.57348742 11.081198 3.40939041 11.7595618 3.78735464 12.0673264 3.64468294 12.4030373 4.1719092 12.3177746 4.86656542 12.2058116 5.76374065 12.0308361 6.39409664 11.7684619 7.70575008 11.2036631 9.17094035 9.62407757 9.75605463 8.8314368 8.88648753 9.02866249 7.82811644 9.21325006 6.69155199 9.60485341 6.27083969 9.74974664 5.81307905 10.0124769 5.36725225 10.3442717 4.84002599 10.7372991 4.58531871 11.0071494 4.13557333 11.4695973L3.63096793 11.9882938 3.85432662 11.4954075C4.03814335 11.0892081 4.24440281 10.6922647 4.42341037 10.2837512M10.7174461 4.00984417C11.094691 3.72792216 11.4540349 3.42430109 11.6723264 3.16358121 12.0293499 2.7296002 12.2618958 2.13594068 12.3669807 1.5691151 12.4569824 1.00841827 12.4510155.464948157 12.3114548.122235674 11.4959694.515137564 10.5097626 1.24147601 9.82273278 1.94694361 9.18360444 2.58251045 9.01404317 3.82382865 9.34703301 4.67688292 9.49786464 5.06282786 9.25106431 5.25116237 9.67637637 5.41001267 10.2374369 5.61838981 10.9756832 5.86503016 11.5514954 5.93542784 12.7591429 6.06827241 14.5069667 5.51353867 15.2727273 5.17297953 14.5467464 4.95416697 13.6855144 4.64690179 12.6805779 4.45873292 12.3093 4.38982602 11.8599543 4.39280757 11.3903873 4.45127905 10.834465 4.52101417 10.5337962 4.61327654 10.0057197 4.76682631L9.41465862 4.93843102 9.78742823 4.66727571C10.094064 4.44382518 10.4129651 4.23760138 10.7174461 4.00984417" transform="matrix(-1 0 0 1 48 0)"/>
    </g>
  </g>
</svg>
