<svg xmlns="http://www.w3.org/2000/svg" width="20" height="20"><path fill="#1B2733" fill-rule="evenodd" d="M10.616 7.866c.764-.334 1.467-.456 1.376-1.034-.092-.577-.306-1.002-1.499-1.002-1.192 0-.672 1.58-1.651.638-.979-.942.214-.7.704-.912.489-.213.978-1.094.122-1.155-.856-.06-.673.364-1.346.122-.672-.243-.978.85-1.406.699C6.632 5.12 5.875 4.556 5.373 4A8.78 8.78 0 0 0 3 7.138c.146 1.635 1.04 2.49 1.04 2.49S4.5 10.694 7.253 12c0 0 .52.03-.092-.578-.611-.607-1.284-1.367-.52-1.763.765-.395.979-.364 1.162.365.184.73.795.304.857-.395.06-.699 1.192-1.429 1.957-1.763zM10.999 10c-1.399 0-2.277.295-1.92 2.065.359 1.77 1.4.973 1.302 2.33-.097 1.356.26 1.651.488 1.976.228.325.911 1.268 1.17-.059.262-1.328.75-2.065 1.302-2.714.553-.648 1.139-1.504.033-2.36-1.106-.855-.976-1.238-2.375-1.238zM0 10c0 5.523 4.477 10 10 10s10-4.477 10-10S15.523 0 10 0 0 4.477 0 10zm1.566 0a8.434 8.434 0 1 1 16.869 0 8.434 8.434 0 0 1-16.87 0zm15.252-.963a6.302 6.302 0 0 0-.205-1.01c-.018-.059-.032-.119-.05-.177a6.466 6.466 0 0 0-.189-.515c-.03-.07-.064-.139-.096-.209a6.325 6.325 0 0 0-.282-.547 6.43 6.43 0 0 0-.133-.22c-.057-.09-.114-.18-.176-.267-.033-.048-.07-.093-.105-.14a6.573 6.573 0 0 0-.852-.941l-.06-.054a6.605 6.605 0 0 0-.347-.287l-.018-.014a6.525 6.525 0 0 0-1.706-.937c-.185.295-.372.669-.592.794-.317.181-.294.905.317.837 0 0-.18.181 0 .837.181.656.484.799 1.38.43.384-.158.675-.076.633.317-.09.836-.735.801-.249 2.149.294.814 1.018 1.13 1.29 1.764.15.348.722.669 1.208.887.052-.17.096-.345.134-.52.014-.067.026-.136.038-.204.024-.131.045-.264.061-.398a6.683 6.683 0 0 0 .051-.783c0-.204-.012-.405-.03-.605-.006-.063-.015-.125-.022-.187z"/></svg>