<svg xmlns="http://www.w3.org/2000/svg" width="132" height="44"><path fill="#147BD1" fill-rule="nonzero" d="M27.869 34.459L33.352 0h4.45L32.32 34.46h-4.45m27.19-.664C54.006 40.501 50.08 44 43.906 44c-3.781 0-6.748-1.389-8.759-3.736l2.489-3.067c1.724 2.011 3.782 2.97 6.225 2.97 3.732 0 6.03-2.158 6.748-6.372l.287-1.677h-.097c-2.01 1.868-4.355 2.874-6.94 2.874-4.787 0-7.086-2.395-7.086-6.947 0-.862.097-1.772.24-2.779l2.248-14.176h4.402l-2.199 14.178a10.49 10.49 0 0 0-.19 1.964c0 2.588 1.148 3.883 3.734 3.883 2.679 0 5.072-1.63 6.7-4.458l2.486-15.565h4.451L55.06 33.796m50.09-18.489l.942-4.304h-4.388L97.969 34.52h4.45l1.978-12.622c.874-4.628 4.3-6.925 7.932-6.925.441 0 .764 0 1.119.035l.663-4.18c-4.197-.652-7.347 1.485-8.961 4.48m-16.78-4.215L81.069 27.36 78.47 11.092h-4.32L66.642 27.36l-2.476-16.268h-4.503l3.789 23.514h4.573l7.345-16.298 2.558 16.298h4.53l10.586-23.514H88.37m1.555 23.514l3.734-23.514h4.45l-3.733 23.514h-4.45m9.32-28.232a2.553 2.553 0 0 1-2.553 2.551 2.551 2.551 0 0 1-.001-5.1 2.552 2.552 0 0 1 2.554 2.55v-.001zM16.586 17.602l.433-2.575H1.147l.653-4.095h15.86l.31-1.957C18.876 3.274 22.69-.008 28.473 0h3.178l-.624 3.991-2.978-.006c-3.217-.003-5.054 1.593-5.635 5.154l-.284 1.793h6.133l-.65 4.095h-6.126l-3.343 19.832c-.91 5.698-4.782 8.96-10.6 8.952l-.332-.002.678-4.323.217-.002c3.273.004 5.035-1.385 5.613-4.928l2.172-12.863H0l.653-4.092h15.932zm103.486 13.474c6.18-.123 6.375-4.422 6.375-4.422h4.084s-.88 8.177-10.582 8.177c-2.995 0-5.425-.992-6.846-2.795-1.526-1.938-2.073-4.307-1.667-7.243l.336-2.1c.946-5.509 2.12-12.361 11.755-12.361 2.636 0 4.845.775 6.386 2.242 1.327 1.262 2.088 3.002 2.088 4.775 0 2.556-1.055 4.496-3.135 5.763-2.12 1.293-4.766 1.558-6.728 1.558h-6.496c-.374 2.291-.14 3.97.727 4.99.824.971 2.072 1.448 3.703 1.416zm-3.723-10.774l-.14.75h6.016c3.75 0 5.497-1.15 5.497-3.616 0-2.01-1.762-3.309-4.49-3.309-3.72 0-6.165 2.193-6.883 6.175z"/></svg>
