<svg xmlns="http://www.w3.org/2000/svg" width="48" height="48" viewBox="0 0 48 48">
  <g fill="none" fill-rule="evenodd">
    <rect width="48" height="48"/>
    <g transform="translate(5 12)">
      <polygon fill="#FF5F00" fill-rule="nonzero" points="14.04 3.176 23.897 3.176 23.897 20.954 14.04 20.954"/>
      <path fill="#EB001B" fill-rule="nonzero" d="M14.6659864,12.0667769 C14.662301,8.59699757 16.249026,5.31833621 18.9687075,3.17603306 C14.3498664,-0.466925887 7.71702528,0.0637025866 3.73156669,4.39500705 C-0.253891907,8.72631151 -0.253891907,15.4041017 3.73156669,19.7354062 C7.71702528,24.0667106 14.3498664,24.5973391 18.9687075,20.9543802 C16.2498912,18.8127571 14.6632631,15.5354541 14.6659864,12.0667769 L14.6659864,12.0667769 Z"/>
      <path fill="#F79E1B" fill-rule="nonzero" d="M37.1965986,12.0667769 C37.1965986,16.3954418 34.7336963,20.344072 30.8541547,22.2356692 C26.9746131,24.1272663 22.3594363,23.6297356 18.9687075,20.9543802 C21.6863375,18.8109389 23.273085,15.5340716 23.273085,12.0652066 C23.273085,8.59634159 21.6863375,5.3194743 18.9687075,3.17603306 C22.3594363,0.500677658 26.9746131,0.00314692505 30.8541547,1.89474407 C34.7336963,3.78634121 37.1965986,7.73497145 37.1965986,12.0636364 L37.1965986,12.0667769 Z"/>
      <polygon fill="#F79E1B" points="36.12 19.127 36.12 18.716 36.267 18.716 36.267 18.63 35.895 18.63 35.895 18.716 36.054 18.716 36.054 19.127"/>
      <polygon fill="#F79E1B" points="36.843 19.127 36.843 18.63 36.73 18.63 36.599 18.985 36.467 18.63 36.367 18.63 36.367 19.127 36.449 19.127 36.449 18.755 36.571 19.077 36.655 19.077 36.777 18.755 36.777 19.13"/>
    </g>
  </g>
</svg>
