<svg xmlns="http://www.w3.org/2000/svg" width="48" height="48" viewBox="0 0 48 48">
  <g fill="none" fill-rule="evenodd">
    <polygon fill="#F1AD2B" points="5.108 35.895 42.891 35.895 42.891 32.465 5.108 32.465"/>
    <polygon fill="#182E66" points="5.108 15.501 42.891 15.501 42.891 12.071 5.108 12.071"/>
    <path fill="#182E66" d="M23.6737429,19.2793282 L21.682181,28.7061985 L19.2733429,28.7061985 L21.2650857,19.2793282 L23.6737429,19.2793282 Z M33.8078,25.3665344 L35.0759143,21.8262595 L35.8053333,25.3665344 L33.8078,25.3665344 Z M36.4967524,28.7061985 L38.7239143,28.7061985 L36.7779524,19.2793282 L34.723419,19.2793282 C34.260181,19.2793282 33.8700476,19.5512061 33.6972381,19.9703817 L30.0827143,28.7061985 L32.6126095,28.7061985 L33.1147524,27.2984427 L36.2046952,27.2984427 L36.4967524,28.7061985 Z M30.2082952,25.6287023 C30.2187905,23.1409466 26.8114571,23.0029924 26.8340762,21.8912977 C26.8414952,21.5534656 27.1596095,21.1938321 27.8555524,21.1018626 C28.2004476,21.0567939 29.1522571,21.0203359 30.2312762,21.5236031 L30.6532571,19.5237252 C30.0734857,19.3115725 29.327781,19.1071145 28.4000381,19.1071145 C26.0187048,19.1071145 24.3434476,20.3877252 24.3300571,22.223084 C24.3148571,23.5802748 25.5268762,24.3370992 26.4379714,24.7890687 C27.3772952,25.2509313 27.6921524,25.5473588 27.6876286,25.9601221 C27.6811143,26.5925496 26.9383048,26.8726718 26.2470667,26.8831145 C25.0352286,26.9023511 24.3329524,26.5516947 23.7730857,26.2873282 L23.3359048,28.3540763 C23.8995714,28.615145 24.938419,28.842687 26.013819,28.854229 C28.5453429,28.854229 30.2008762,27.5886412 30.2082952,25.6287023 L30.2082952,25.6287023 Z M20.2318476,19.2793282 L16.3288857,28.7061985 L13.7828857,28.7061985 L11.8620762,21.1828397 C11.7457238,20.7204275 11.6442095,20.550229 11.2900857,20.3549313 C10.7108571,20.0361527 9.75452381,19.7382595 8.91381905,19.5530382 L8.9706381,19.2793282 L13.0695714,19.2793282 C13.5918,19.2793282 14.0613714,19.631084 14.1808,20.2400611 L15.1954,25.6953893 L17.7012286,19.2793282 L20.2318476,19.2793282 L20.2318476,19.2793282 Z"/>
  </g>
</svg>
